{
  "source": "C:\\Users\\Peter\\Desktop\\stuff\\MIUN\\quantitative_research\\video_compression\\videos\\HEVC_CLASS_B\\BQTerrace_1920x1080_60.y4m",
  "output": "C:\\Users\\Peter\\Desktop\\stuff\\MIUN\\quantitative_research\\video_compression\\compressed_videos\\HEVC_CLASS_B\\av1\\1.5\\BQTerrace_1920x1080_60_av1.mkv",
  "codec": "av1",
  "ok": "Input #0, yuv4mpegpipe, from 'C:\\Users\\Peter\\Desktop\\stuff\\MIUN\\quantitative_research\\video_compression\\videos\\HEVC_CLASS_B\\BQTerrace_1920x1080_60.y4m':\n  Duration: 00:00:10.00, start: 0.000000, bitrate: 1492994 kb/s\n  Stream #0:0: Video: rawvideo (I420 / 0x30323449), yuv420p(progressive), 1920x1080, 60 fps, 60 tbr, 60 tbn\n[out#0/matroska @ 00000204e54d8ec0] Codec AVOption b:a (set bitrate (in bits/s)) has not been used for any stream. The most likely reason is either wrong type (e.g. a video option with no video streams) or that it is a private option of some decoder which was not actually used for any stream.\nStream mapping:\n  Stream #0:0 -> #0:0 (rawvideo (native) -> av1 (libsvtav1))\nPress [q] to stop, [?] for help\nSvt[info]: -------------------------------------------\nSvt[info]: SVT [version]:\tSVT-AV1 Encoder Lib v3.1.0-19-g6ecfe8ec\nSvt[info]: SVT [build]  :\tGCC 15.2.0\t 64 bit\nSvt[info]: LIB Build date: Aug 17 2025 11:37:13\nSvt[info]: -------------------------------------------\n[libsvtav1 @ 00000204e54dc080] Specified chroma sample location center is unsupported on the AV1 bit stream level. Usage of a container that allows passing this information - such as Matroska - is recommended.\nSvt[info]: Level of Parallelism: 5\nSvt[info]: Number of PPCS 93\nSvt[info]: [asm level on system : up to avx2]\nSvt[info]: [asm level selected : up to avx2]\nSvt[info]: -------------------------------------------\nSvt[info]: SVT [config]: main profile\ttier (auto)\tlevel (auto)\nSvt[info]: SVT [config]: width / height / fps numerator / fps denominator \t\t: 1920 / 1080 / 60 / 1\nSvt[info]: SVT [config]: bit-depth / color format \t\t\t\t\t: 8 / YUV420\nSvt[info]: SVT [config]: preset / tune / pred struct \t\t\t\t\t: 4 / PSNR / random access\nSvt[info]: SVT [config]: gop size / mini-gop size / key-frame type \t\t\t: 321 / 16 / key frame\nSvt[info]: SVT [config]: BRC mode / target bitrate (kbps)\t\t\t\t: VBR / 1500 \nSvt[info]: SVT [config]: AQ mode / Variance Boost \t\t\t\t\t: 2 / 0\nSvt[info]: SVT [config]: sharpness / luminance-based QP bias \t\t\t\t: 0 / 0\nSvt[info]: SVT [config]: QP scale compress strength \t\t\t\t\t: 0\nSvt[info]: -------------------------------------------\nOutput #0, matroska, to 'C:\\Users\\Peter\\Desktop\\stuff\\MIUN\\quantitative_research\\video_compression\\compressed_videos\\HEVC_CLASS_B\\av1\\1.5\\BQTerrace_1920x1080_60_av1.mkv':\n  Metadata:\n    encoder         : Lavf62.3.100\n  Stream #0:0: Video: av1 (AV01 / 0x31305641), yuv420p(tv, progressive), 1920x1080, q=2-31, 1500 kb/s, 60 fps, 1k tbn\n    Metadata:\n      encoder         : Lavc62.11.100 libsvtav1\n    Side data:\n      cpb: bitrate max/min/avg: 0/0/1500000 buffer size: 1500000 vbv_delay: N/A\nframe=    0 fps=0.0 q=0.0 size=       0KiB time=N/A bitrate=N/A speed=N/A elapsed=0:00:04.11    \nframe=    0 fps=0.0 q=0.0 size=       0KiB time=N/A bitrate=N/A speed=N/A elapsed=0:00:04.64    \nframe=    0 fps=0.0 q=0.0 size=       0KiB time=N/A bitrate=N/A speed=N/A elapsed=0:00:05.21    \nframe=    0 fps=0.0 q=0.0 size=       0KiB time=N/A bitrate=N/A speed=N/A elapsed=0:00:05.85    \nframe=    0 fps=0.0 q=0.0 size=       0KiB time=N/A bitrate=N/A speed=N/A elapsed=0:00:06.43    \nframe=    0 fps=0.0 q=0.0 size=       0KiB time=N/A bitrate=N/A speed=N/A elapsed=0:00:07.00    \nframe=    0 fps=0.0 q=0.0 size=       0KiB time=N/A bitrate=N/A speed=N/A elapsed=0:00:07.51    \nframe=    0 fps=0.0 q=0.0 size=       0KiB time=N/A bitrate=N/A speed=N/A elapsed=0:00:08.07    \nframe=    0 fps=0.0 q=0.0 size=       0KiB time=N/A bitrate=N/A speed=N/A elapsed=0:00:08.62    \nframe=    0 fps=0.0 q=0.0 size=       0KiB time=N/A bitrate=N/A speed=N/A elapsed=0:00:09.21    \nframe=    0 fps=0.0 q=0.0 size=       0KiB time=N/A bitrate=N/A speed=N/A elapsed=0:00:09.76    \nframe=    0 fps=0.0 q=0.0 size=       0KiB time=N/A bitrate=N/A speed=N/A elapsed=0:00:10.28    \nframe=    0 fps=0.0 q=0.0 size=       0KiB time=N/A bitrate=N/A speed=N/A elapsed=0:00:10.80    \nframe=    0 fps=0.0 q=0.0 size=       0KiB time=N/A bitrate=N/A speed=N/A elapsed=0:00:11.31    \nframe=    0 fps=0.0 q=0.0 size=       0KiB time=N/A bitrate=N/A speed=N/A elapsed=0:00:11.89    \nframe=    0 fps=0.0 q=0.0 size=       0KiB time=N/A bitrate=N/A speed=N/A elapsed=0:00:12.44    \nframe=    0 fps=0.0 q=0.0 size=       0KiB time=N/A bitrate=N/A speed=N/A elapsed=0:00:13.08    \nframe=    0 fps=0.0 q=0.0 size=       0KiB time=N/A bitrate=N/A speed=N/A elapsed=0:00:13.70    \nframe=    0 fps=0.0 q=0.0 size=       0KiB time=N/A bitrate=N/A speed=N/A elapsed=0:00:14.22    \nframe=    0 fps=0.0 q=0.0 size=       0KiB time=N/A bitrate=N/A speed=N/A elapsed=0:00:14.77    \nframe=    0 fps=0.0 q=0.0 size=       0KiB time=N/A bitrate=N/A speed=N/A elapsed=0:00:15.30    \nframe=    0 fps=0.0 q=0.0 size=       0KiB time=N/A bitrate=N/A speed=N/A elapsed=0:00:15.82    \nframe=    0 fps=0.0 q=0.0 size=       0KiB time=N/A bitrate=N/A speed=N/A elapsed=0:00:16.34    \nframe=    0 fps=0.0 q=0.0 size=       0KiB time=N/A bitrate=N/A speed=N/A elapsed=0:00:16.87    \nframe=    0 fps=0.0 q=0.0 size=       0KiB time=N/A bitrate=N/A speed=N/A elapsed=0:00:17.40    \nframe=    0 fps=0.0 q=0.0 size=       0KiB time=N/A bitrate=N/A speed=N/A elapsed=0:00:17.93    \nframe=    0 fps=0.0 q=0.0 size=       0KiB time=N/A bitrate=N/A speed=N/A elapsed=0:00:18.48    \nframe=    0 fps=0.0 q=0.0 size=       0KiB time=N/A bitrate=N/A speed=N/A elapsed=0:00:19.01    \nframe=    0 fps=0.0 q=0.0 size=       0KiB time=N/A bitrate=N/A speed=N/A elapsed=0:00:19.53    \nframe=    0 fps=0.0 q=0.0 size=       0KiB time=N/A bitrate=N/A speed=N/A elapsed=0:00:20.07    \nframe=    0 fps=0.0 q=0.0 size=       0KiB time=N/A bitrate=N/A speed=N/A elapsed=0:00:20.59    \nframe=    0 fps=0.0 q=0.0 size=       0KiB time=N/A bitrate=N/A speed=N/A elapsed=0:00:21.11    \nframe=    0 fps=0.0 q=0.0 size=       0KiB time=N/A bitrate=N/A speed=N/A elapsed=0:00:21.65    \nframe=    0 fps=0.0 q=0.0 size=       0KiB time=N/A bitrate=N/A speed=N/A elapsed=0:00:22.16    \nframe=    1 fps=0.0 q=33.0 size=       1KiB time=N/A bitrate=N/A speed=N/A elapsed=0:00:22.67    \nframe=    1 fps=0.0 q=33.0 size=       1KiB time=00:00:00.00 bitrate=N/A speed=   0x elapsed=0:00:23.21    \nframe=    1 fps=0.0 q=33.0 size=       1KiB time=00:00:00.00 bitrate=N/A speed=   0x elapsed=0:00:23.92    \nframe=    1 fps=0.0 q=33.0 size=       1KiB time=00:00:00.00 bitrate=N/A speed=   0x elapsed=0:00:24.50    \nframe=    1 fps=0.0 q=33.0 size=       1KiB time=00:00:00.00 bitrate=N/A speed=   0x elapsed=0:00:25.07    \nframe=    1 fps=0.0 q=33.0 size=       1KiB time=00:00:00.00 bitrate=N/A speed=   0x elapsed=0:00:25.62    \nframe=    1 fps=0.0 q=33.0 size=       1KiB time=00:00:00.00 bitrate=N/A speed=   0x elapsed=0:00:26.16    \nframe=    1 fps=0.0 q=33.0 size=       1KiB time=00:00:00.00 bitrate=N/A speed=   0x elapsed=0:00:26.68    \nframe=    1 fps=0.0 q=33.0 size=       1KiB time=00:00:00.00 bitrate=N/A speed=   0x elapsed=0:00:27.19    \nframe=    1 fps=0.0 q=33.0 size=       1KiB time=00:00:00.00 bitrate=N/A speed=   0x elapsed=0:00:27.75    \nframe=    4 fps=0.1 q=60.0 size=       1KiB time=00:00:00.05 bitrate=  89.6kbits/s speed=0.00177x elapsed=0:00:28.29    \nframe=    7 fps=0.2 q=56.0 size=       1KiB time=00:00:00.10 bitrate=  44.8kbits/s speed=0.00347x elapsed=0:00:28.82    \nframe=    9 fps=0.3 q=53.0 size=       1KiB time=00:00:00.13 bitrate=  33.6kbits/s speed=0.00454x elapsed=0:00:29.38    \nframe=   11 fps=0.4 q=55.0 size=       1KiB time=00:00:00.16 bitrate=  26.9kbits/s speed=0.00556x elapsed=0:00:29.95    \nframe=   14 fps=0.5 q=54.0 size=       1KiB time=00:00:00.21 bitrate=  20.7kbits/s speed=0.0071x elapsed=0:00:30.50    \nframe=   15 fps=0.5 q=54.0 size=       1KiB time=00:00:00.23 bitrate=  19.2kbits/s speed=0.00752x elapsed=0:00:31.02    \nframe=   16 fps=0.5 q=53.0 size=       1KiB time=00:00:00.25 bitrate=  17.9kbits/s speed=0.00791x elapsed=0:00:31.61    \nframe=   19 fps=0.6 q=50.0 size=       1KiB time=00:00:00.30 bitrate=  14.9kbits/s speed=0.0093x elapsed=0:00:32.26    \nframe=   20 fps=0.6 q=50.0 size=       1KiB time=00:00:00.31 bitrate=  14.1kbits/s speed=0.00966x elapsed=0:00:32.76    \nframe=   22 fps=0.7 q=49.0 size=       1KiB time=00:00:00.35 bitrate=  12.8kbits/s speed=0.0105x elapsed=0:00:33.29    \nframe=   23 fps=0.7 q=49.0 size=       1KiB time=00:00:00.36 bitrate=  12.2kbits/s speed=0.0108x elapsed=0:00:33.86    \nframe=   25 fps=0.7 q=46.0 size=       1KiB time=00:00:00.40 bitrate=  11.2kbits/s speed=0.0116x elapsed=0:00:34.41    \nframe=   26 fps=0.7 q=47.0 size=       1KiB time=00:00:00.41 bitrate=  10.8kbits/s speed=0.0119x elapsed=0:00:34.98    \nframe=   27 fps=0.8 q=47.0 size=       1KiB time=00:00:00.43 bitrate=  10.3kbits/s speed=0.0122x elapsed=0:00:35.55    \nframe=   28 fps=0.8 q=47.0 size=       1KiB time=00:00:00.45 bitrate=  10.0kbits/s speed=0.0125x elapsed=0:00:36.13    \nframe=   29 fps=0.8 q=47.0 size=       1KiB time=00:00:00.46 bitrate=   9.6kbits/s speed=0.0127x elapsed=0:00:36.68    \nframe=   30 fps=0.8 q=46.0 size=       1KiB time=00:00:00.48 bitrate=   9.3kbits/s speed=0.013x elapsed=0:00:37.22    \nframe=   30 fps=0.8 q=46.0 size=       1KiB time=00:00:00.48 bitrate=   9.3kbits/s speed=0.0128x elapsed=0:00:37.73    \nframe=   30 fps=0.8 q=46.0 size=       1KiB time=00:00:00.48 bitrate=   9.3kbits/s speed=0.0126x elapsed=0:00:38.25    \nframe=   30 fps=0.8 q=46.0 size=       1KiB time=00:00:00.48 bitrate=   9.3kbits/s speed=0.0125x elapsed=0:00:38.80    \nframe=   31 fps=0.8 q=46.0 size=       1KiB time=00:00:00.50 bitrate=   9.0kbits/s speed=0.0127x elapsed=0:00:39.37    \nframe=   31 fps=0.8 q=46.0 size=       1KiB time=00:00:00.50 bitrate=   9.0kbits/s speed=0.0125x elapsed=0:00:39.90    \nframe=   32 fps=0.8 q=46.0 size=       1KiB time=00:00:00.51 bitrate=   8.7kbits/s speed=0.0128x elapsed=0:00:40.42    \nframe=   33 fps=0.8 q=40.0 size=       1KiB time=00:00:00.53 bitrate=   8.4kbits/s speed=0.013x elapsed=0:00:40.96    \nframe=   34 fps=0.8 q=44.0 size=       1KiB time=00:00:00.55 bitrate=   8.1kbits/s speed=0.0133x elapsed=0:00:41.50    \nframe=   35 fps=0.8 q=45.0 size=       1KiB time=00:00:00.56 bitrate=   7.9kbits/s speed=0.0135x elapsed=0:00:42.01    \nframe=   36 fps=0.8 q=43.0 size=       1KiB time=00:00:00.58 bitrate=   7.7kbits/s speed=0.0137x elapsed=0:00:42.54    \nframe=   38 fps=0.9 q=43.0 size=       1KiB time=00:00:00.61 bitrate=   7.3kbits/s speed=0.0143x elapsed=0:00:43.08    \nframe=   38 fps=0.9 q=43.0 size=       1KiB time=00:00:00.61 bitrate=   7.3kbits/s speed=0.0141x elapsed=0:00:43.63    \nframe=   39 fps=0.9 q=46.0 size=       1KiB time=00:00:00.63 bitrate=   7.1kbits/s speed=0.0143x elapsed=0:00:44.24    \nframe=   40 fps=0.9 q=43.0 size=       1KiB time=00:00:00.65 bitrate=   6.9kbits/s speed=0.0145x elapsed=0:00:44.76    \nframe=   40 fps=0.9 q=43.0 size=       1KiB time=00:00:00.65 bitrate=   6.9kbits/s speed=0.0143x elapsed=0:00:45.34    \nframe=   41 fps=0.9 q=40.0 size=       1KiB time=00:00:00.66 bitrate=   6.7kbits/s speed=0.0145x elapsed=0:00:45.85    \nframe=   42 fps=0.9 q=42.0 size=       1KiB time=00:00:00.68 bitrate=   6.6kbits/s speed=0.0147x elapsed=0:00:46.39    \nframe=   44 fps=0.9 q=42.0 size=       1KiB time=00:00:00.71 bitrate=   6.3kbits/s speed=0.0153x elapsed=0:00:46.99    \nframe=   45 fps=0.9 q=47.0 size=       1KiB time=00:00:00.73 bitrate=   6.1kbits/s speed=0.0154x elapsed=0:00:47.53    \nframe=   47 fps=1.0 q=45.0 size=       1KiB time=00:00:00.76 bitrate=   5.8kbits/s speed=0.016x elapsed=0:00:48.05    \nframe=   47 fps=1.0 q=45.0 size=       1KiB time=00:00:00.76 bitrate=   5.8kbits/s speed=0.0158x elapsed=0:00:48.58    \nframe=   49 fps=1.0 q=36.0 size=       1KiB time=00:00:00.78 bitrate=   5.7kbits/s speed=0.0159x elapsed=0:00:49.11    \nframe=   50 fps=1.0 q=44.0 size=       1KiB time=00:00:00.81 bitrate=   5.5kbits/s speed=0.0164x elapsed=0:00:49.71    \nframe=   51 fps=1.0 q=46.0 size=       1KiB time=00:00:00.83 bitrate=   5.4kbits/s speed=0.0166x elapsed=0:00:50.28    \nframe=   53 fps=1.0 q=47.0 size=       1KiB time=00:00:00.85 bitrate=   5.3kbits/s speed=0.0167x elapsed=0:00:50.87    \nframe=   54 fps=1.0 q=44.0 size=       1KiB time=00:00:00.88 bitrate=   5.1kbits/s speed=0.0172x elapsed=0:00:51.49    \nframe=   54 fps=1.0 q=44.0 size=       1KiB time=00:00:00.88 bitrate=   5.1kbits/s speed=0.017x elapsed=0:00:52.03    \nframe=   55 fps=1.0 q=46.0 size=       1KiB time=00:00:00.90 bitrate=   5.0kbits/s speed=0.0171x elapsed=0:00:52.55    \nframe=   57 fps=1.1 q=37.0 size=       1KiB time=00:00:00.93 bitrate=   4.8kbits/s speed=0.0176x elapsed=0:00:53.08    \nframe=   58 fps=1.1 q=41.0 size=       1KiB time=00:00:00.95 bitrate=   4.7kbits/s speed=0.0177x elapsed=0:00:53.79    \nframe=   59 fps=1.1 q=46.0 size=       1KiB time=00:00:00.96 bitrate=   4.6kbits/s speed=0.0178x elapsed=0:00:54.33    \nframe=   61 fps=1.1 q=47.0 size=       1KiB time=00:00:01.00 bitrate=   4.5kbits/s speed=0.0182x elapsed=0:00:54.93    \nframe=   61 fps=1.1 q=47.0 size=       1KiB time=00:00:01.00 bitrate=   4.5kbits/s speed=0.018x elapsed=0:00:55.43    \nframe=   61 fps=1.1 q=47.0 size=       1KiB time=00:00:01.00 bitrate=   4.5kbits/s speed=0.0178x elapsed=0:00:56.03    \nframe=   62 fps=1.1 q=44.0 size=       1KiB time=00:00:01.01 bitrate=   4.4kbits/s speed=0.018x elapsed=0:00:56.57    \nframe=   62 fps=1.1 q=44.0 size=       1KiB time=00:00:01.01 bitrate=   4.4kbits/s speed=0.0178x elapsed=0:00:57.13    \nframe=   63 fps=1.1 q=46.0 size=       1KiB time=00:00:01.03 bitrate=   4.3kbits/s speed=0.0179x elapsed=0:00:57.66    \nframe=   65 fps=1.1 q=31.0 size=       1KiB time=00:00:01.06 bitrate=   4.2kbits/s speed=0.0183x elapsed=0:00:58.22    \nframe=   67 fps=1.1 q=45.0 size=       1KiB time=00:00:01.10 bitrate=   4.1kbits/s speed=0.0187x elapsed=0:00:58.73    \nframe=   68 fps=1.1 q=42.0 size=       1KiB time=00:00:01.11 bitrate=   4.0kbits/s speed=0.0188x elapsed=0:00:59.28    \nframe=   70 fps=1.2 q=43.0 size=       1KiB time=00:00:01.15 bitrate=   3.9kbits/s speed=0.0192x elapsed=0:00:59.82    \nframe=   71 fps=1.2 q=45.0 size=       1KiB time=00:00:01.16 bitrate=   3.8kbits/s speed=0.0193x elapsed=0:01:00.36    \nframe=   73 fps=1.2 q=38.0 size=       1KiB time=00:00:01.18 bitrate=   3.8kbits/s speed=0.0194x elapsed=0:01:00.88    \nframe=   74 fps=1.2 q=44.0 size=       1KiB time=00:00:01.21 bitrate=   3.7kbits/s speed=0.0198x elapsed=0:01:01.42    \nframe=   76 fps=1.2 q=44.0 size=       1KiB time=00:00:01.25 bitrate=   3.6kbits/s speed=0.0202x elapsed=0:01:02.00    \nframe=   76 fps=1.2 q=44.0 size=       1KiB time=00:00:01.25 bitrate=   3.6kbits/s speed=0.02x elapsed=0:01:02.53    \nframe=   77 fps=1.2 q=47.0 size=       1KiB time=00:00:01.26 bitrate=   3.5kbits/s speed=0.0201x elapsed=0:01:03.09    \nframe=   78 fps=1.2 q=44.0 size=       1KiB time=00:00:01.28 bitrate=   3.5kbits/s speed=0.0202x elapsed=0:01:03.61    \nframe=   79 fps=1.2 q=45.0 size=       1KiB time=00:00:01.30 bitrate=   3.4kbits/s speed=0.0203x elapsed=0:01:04.18    \nframe=   80 fps=1.2 q=44.0 size=       1KiB time=00:00:01.31 bitrate=   3.4kbits/s speed=0.0203x elapsed=0:01:04.72    \nframe=   80 fps=1.2 q=44.0 size=       1KiB time=00:00:01.31 bitrate=   3.4kbits/s speed=0.0202x elapsed=0:01:05.29    \nframe=   82 fps=1.2 q=43.0 size=       1KiB time=00:00:01.35 bitrate=   3.3kbits/s speed=0.0205x elapsed=0:01:05.81    \nframe=   83 fps=1.3 q=44.0 size=       1KiB time=00:00:01.36 bitrate=   3.3kbits/s speed=0.0206x elapsed=0:01:06.34    \nframe=   84 fps=1.3 q=43.0 size=       1KiB time=00:00:01.38 bitrate=   3.2kbits/s speed=0.0207x elapsed=0:01:06.89    \nframe=   86 fps=1.3 q=43.0 size=       1KiB time=00:00:01.41 bitrate=   3.2kbits/s speed=0.021x elapsed=0:01:07.46    \nframe=   87 fps=1.3 q=44.0 size=       1KiB time=00:00:01.43 bitrate=   3.1kbits/s speed=0.0211x elapsed=0:01:07.98    \nframe=   88 fps=1.3 q=43.0 size=       1KiB time=00:00:01.45 bitrate=   3.1kbits/s speed=0.0212x elapsed=0:01:08.53    \nframe=   90 fps=1.3 q=43.0 size=       1KiB time=00:00:01.48 bitrate=   3.0kbits/s speed=0.0215x elapsed=0:01:09.05    \nframe=   91 fps=1.3 q=44.0 size=       1KiB time=00:00:01.50 bitrate=   3.0kbits/s speed=0.0216x elapsed=0:01:09.58    \nframe=   93 fps=1.3 q=45.0 size=       1KiB time=00:00:01.53 bitrate=   2.9kbits/s speed=0.0219x elapsed=0:01:10.11    \nframe=   94 fps=1.3 q=44.0 size=       1KiB time=00:00:01.55 bitrate=   2.9kbits/s speed=0.0219x elapsed=0:01:10.66    \nframe=   95 fps=1.3 q=45.0 size=       1KiB time=00:00:01.56 bitrate=   2.9kbits/s speed=0.022x elapsed=0:01:11.20    \nframe=   96 fps=1.3 q=38.0 size=       1KiB time=00:00:01.58 bitrate=   2.8kbits/s speed=0.0221x elapsed=0:01:11.72    \nframe=   97 fps=1.3 q=32.0 size=       1KiB time=00:00:01.60 bitrate=   2.8kbits/s speed=0.0221x elapsed=0:01:12.27    \nframe=   99 fps=1.4 q=45.0 size=       1KiB time=00:00:01.63 bitrate=   2.7kbits/s speed=0.0224x elapsed=0:01:12.81    \nframe=  100 fps=1.4 q=45.0 size=       1KiB time=00:00:01.65 bitrate=   2.7kbits/s speed=0.0225x elapsed=0:01:13.39    \nframe=  101 fps=1.4 q=46.0 size=       1KiB time=00:00:01.66 bitrate=   2.7kbits/s speed=0.0225x elapsed=0:01:13.94    \nframe=  102 fps=1.4 q=46.0 size=       1KiB time=00:00:01.68 bitrate=   2.7kbits/s speed=0.0226x elapsed=0:01:14.48    \nframe=  103 fps=1.4 q=46.0 size=       1KiB time=00:00:01.70 bitrate=   2.6kbits/s speed=0.0227x elapsed=0:01:15.00    \nframe=  104 fps=1.4 q=46.0 size=       1KiB time=00:00:01.71 bitrate=   2.6kbits/s speed=0.0227x elapsed=0:01:15.54    \nframe=  106 fps=1.4 q=46.0 size=       1KiB time=00:00:01.75 bitrate=   2.6kbits/s speed=0.023x elapsed=0:01:16.06    \nframe=  107 fps=1.4 q=46.0 size=       1KiB time=00:00:01.76 bitrate=   2.5kbits/s speed=0.0231x elapsed=0:01:16.63    \nframe=  109 fps=1.4 q=46.0 size=       1KiB time=00:00:01.80 bitrate=   2.5kbits/s speed=0.0233x elapsed=0:01:17.21    \nframe=  110 fps=1.4 q=46.0 size=       1KiB time=00:00:01.81 bitrate=   2.5kbits/s speed=0.0234x elapsed=0:01:17.76    \nframe=  111 fps=1.4 q=46.0 size=       1KiB time=00:00:01.81 bitrate=   2.5kbits/s speed=0.0232x elapsed=0:01:18.26    \nframe=  111 fps=1.4 q=46.0 size=       1KiB time=00:00:01.83 bitrate=   2.4kbits/s speed=0.0233x elapsed=0:01:18.83    \nframe=  112 fps=1.4 q=40.0 size=       1KiB time=00:00:01.85 bitrate=   2.4kbits/s speed=0.0233x elapsed=0:01:19.35    \nframe=  114 fps=1.4 q=46.0 size=       1KiB time=00:00:01.88 bitrate=   2.4kbits/s speed=0.0236x elapsed=0:01:19.87    \nframe=  115 fps=1.4 q=46.0 size=       1KiB time=00:00:01.90 bitrate=   2.4kbits/s speed=0.0236x elapsed=0:01:20.49    \nframe=  116 fps=1.4 q=46.0 size=       1KiB time=00:00:01.91 bitrate=   2.3kbits/s speed=0.0237x elapsed=0:01:21.01    \nframe=  118 fps=1.4 q=46.0 size=       1KiB time=00:00:01.95 bitrate=   2.3kbits/s speed=0.0239x elapsed=0:01:21.58    \nframe=  118 fps=1.4 q=46.0 size=       1KiB time=00:00:01.95 bitrate=   2.3kbits/s speed=0.0237x elapsed=0:01:22.10    \nframe=  120 fps=1.5 q=46.0 size=       1KiB time=00:00:01.98 bitrate=   2.3kbits/s speed=0.024x elapsed=0:01:22.64    \nframe=  122 fps=1.5 q=46.0 size=       1KiB time=00:00:02.01 bitrate=   2.2kbits/s speed=0.0242x elapsed=0:01:23.19    \nframe=  123 fps=1.5 q=46.0 size=       1KiB time=00:00:02.03 bitrate=   2.2kbits/s speed=0.0243x elapsed=0:01:23.72    \nframe=  125 fps=1.5 q=46.0 size=       1KiB time=00:00:02.06 bitrate=   2.2kbits/s speed=0.0245x elapsed=0:01:24.25    \nframe=  126 fps=1.5 q=46.0 size=       1KiB time=00:00:02.08 bitrate=   2.2kbits/s speed=0.0246x elapsed=0:01:24.76    \nframe=  126 fps=1.5 q=46.0 size=       1KiB time=00:00:02.08 bitrate=   2.2kbits/s speed=0.0244x elapsed=0:01:25.29    \nframe=  127 fps=1.5 q=46.0 size=       1KiB time=00:00:02.10 bitrate=   2.1kbits/s speed=0.0245x elapsed=0:01:25.79    \nframe=  128 fps=1.5 q=40.0 size=       1KiB time=00:00:02.11 bitrate=   2.1kbits/s speed=0.0245x elapsed=0:01:26.31    \nframe=  129 fps=1.5 q=34.0 size=       1KiB time=00:00:02.13 bitrate=   2.1kbits/s speed=0.0246x elapsed=0:01:26.83    \nframe=  131 fps=1.5 q=46.0 size=       1KiB time=00:00:02.16 bitrate=   2.1kbits/s speed=0.0248x elapsed=0:01:27.37    \nframe=  132 fps=1.5 q=46.0 size=       1KiB time=00:00:02.18 bitrate=   2.1kbits/s speed=0.0248x elapsed=0:01:27.91    \nframe=  134 fps=1.5 q=46.0 size=       1KiB time=00:00:02.21 bitrate=   2.0kbits/s speed=0.0251x elapsed=0:01:28.44    \nframe=  134 fps=1.5 q=46.0 size=       1KiB time=00:00:02.21 bitrate=   2.0kbits/s speed=0.0249x elapsed=0:01:28.98    \nframe=  136 fps=1.5 q=46.0 size=       1KiB time=00:00:02.25 bitrate=   2.0kbits/s speed=0.0251x elapsed=0:01:29.49    \nframe=  138 fps=1.5 q=46.0 size=       1KiB time=00:00:02.28 bitrate=   2.0kbits/s speed=0.0254x elapsed=0:01:29.99    \nframe=  139 fps=1.5 q=46.0 size=       1KiB time=00:00:02.30 bitrate=   1.9kbits/s speed=0.0254x elapsed=0:01:30.53    \nframe=  141 fps=1.5 q=46.0 size=       1KiB time=00:00:02.33 bitrate=   1.9kbits/s speed=0.0256x elapsed=0:01:31.07    \nframe=  143 fps=1.6 q=46.0 size=       1KiB time=00:00:02.36 bitrate=   1.9kbits/s speed=0.0258x elapsed=0:01:31.65    \nframe=  144 fps=1.6 q=46.0 size=       1KiB time=00:00:02.38 bitrate=   1.9kbits/s speed=0.0258x elapsed=0:01:32.21    \nframe=  145 fps=1.6 q=33.0 size=       1KiB time=00:00:02.40 bitrate=   1.9kbits/s speed=0.0259x elapsed=0:01:32.80    \nframe=  147 fps=1.6 q=45.0 size=       1KiB time=00:00:02.43 bitrate=   1.8kbits/s speed=0.0261x elapsed=0:01:33.36    \nframe=  148 fps=1.6 q=45.0 size=       1KiB time=00:00:02.45 bitrate=   1.8kbits/s speed=0.0261x elapsed=0:01:33.87    \nframe=  150 fps=1.6 q=45.0 size=       1KiB time=00:00:02.48 bitrate=   1.8kbits/s speed=0.0263x elapsed=0:01:34.45    \nframe=  151 fps=1.6 q=45.0 size=       1KiB time=00:00:02.50 bitrate=   1.8kbits/s speed=0.0263x elapsed=0:01:34.98    \nframe=  154 fps=1.6 q=45.0 size=       1KiB time=00:00:02.53 bitrate=   1.8kbits/s speed=0.0265x elapsed=0:01:35.52    \nframe=  154 fps=1.6 q=45.0 size=       1KiB time=00:00:02.55 bitrate=   1.8kbits/s speed=0.0265x elapsed=0:01:36.07    \nframe=  156 fps=1.6 q=39.0 size=       1KiB time=00:00:02.58 bitrate=   1.7kbits/s speed=0.0267x elapsed=0:01:36.60    \nframe=  158 fps=1.6 q=44.0 size=       1KiB time=00:00:02.61 bitrate=   1.7kbits/s speed=0.0269x elapsed=0:01:37.12    \nframe=  162 fps=1.7 q=45.0 size=       1KiB time=00:00:02.68 bitrate=   1.7kbits/s speed=0.0274x elapsed=0:01:37.78    \nframe=  164 fps=1.7 q=45.0 size=       1KiB time=00:00:02.70 bitrate=   1.7kbits/s speed=0.0274x elapsed=0:01:38.70    \nframe=  166 fps=1.7 q=45.0 size=       1KiB time=00:00:02.75 bitrate=   1.6kbits/s speed=0.0276x elapsed=0:01:39.63    \nframe=  167 fps=1.7 q=45.0 size=       1KiB time=00:00:02.76 bitrate=   1.6kbits/s speed=0.0276x elapsed=0:01:40.32    \nframe=  169 fps=1.7 q=39.0 size=       1KiB time=00:00:02.80 bitrate=   1.6kbits/s speed=0.0277x elapsed=0:01:40.93    \nframe=  171 fps=1.7 q=45.0 size=       1KiB time=00:00:02.81 bitrate=   1.6kbits/s speed=0.0278x elapsed=0:01:41.45    \nframe=  172 fps=1.7 q=39.0 size=       1KiB time=00:00:02.85 bitrate=   1.6kbits/s speed=0.0279x elapsed=0:01:42.03    \nframe=  174 fps=1.7 q=43.0 size=       1KiB time=00:00:02.88 bitrate=   1.6kbits/s speed=0.0281x elapsed=0:01:42.56    \nframe=  176 fps=1.7 q=43.0 size=       1KiB time=00:00:02.91 bitrate=   1.5kbits/s speed=0.0283x elapsed=0:01:43.08    \nframe=  177 fps=1.7 q=32.0 size=       1KiB time=00:00:02.93 bitrate=   1.5kbits/s speed=0.0283x elapsed=0:01:43.61    \nframe=  179 fps=1.7 q=45.0 size=       1KiB time=00:00:02.96 bitrate=   1.5kbits/s speed=0.0285x elapsed=0:01:44.14    \nframe=  182 fps=1.7 q=45.0 size=       1KiB time=00:00:03.01 bitrate=   1.5kbits/s speed=0.0288x elapsed=0:01:44.69    \nframe=  183 fps=1.7 q=45.0 size=       1KiB time=00:00:03.03 bitrate=   1.5kbits/s speed=0.0288x elapsed=0:01:45.21    \nframe=  184 fps=1.7 q=45.0 size=       1KiB time=00:00:03.05 bitrate=   1.5kbits/s speed=0.0288x elapsed=0:01:45.73    \nframe=  186 fps=1.7 q=45.0 size=       1KiB time=00:00:03.08 bitrate=   1.5kbits/s speed=0.029x elapsed=0:01:46.28    \nframe=  188 fps=1.8 q=45.0 size=       1KiB time=00:00:03.11 bitrate=   1.4kbits/s speed=0.0292x elapsed=0:01:46.84    \nframe=  189 fps=1.8 q=44.0 size=       1KiB time=00:00:03.13 bitrate=   1.4kbits/s speed=0.0292x elapsed=0:01:47.36    \nframe=  191 fps=1.8 q=45.0 size=       1KiB time=00:00:03.16 bitrate=   1.4kbits/s speed=0.0293x elapsed=0:01:47.90    \nframe=  192 fps=1.8 q=39.0 size=       1KiB time=00:00:03.18 bitrate=   1.4kbits/s speed=0.0294x elapsed=0:01:48.41    \nframe=  193 fps=1.8 q=33.0 size=       1KiB time=00:00:03.20 bitrate=   1.4kbits/s speed=0.0294x elapsed=0:01:48.95    \nframe=  194 fps=1.8 q=46.0 size=       1KiB time=00:00:03.21 bitrate=   1.4kbits/s speed=0.0294x elapsed=0:01:49.46    \nframe=  195 fps=1.8 q=46.0 size=       1KiB time=00:00:03.23 bitrate=   1.4kbits/s speed=0.0294x elapsed=0:01:49.98    \nframe=  197 fps=1.8 q=45.0 size=       1KiB time=00:00:03.26 bitrate=   1.4kbits/s speed=0.0296x elapsed=0:01:50.50    \nframe=  198 fps=1.8 q=46.0 size=       1KiB time=00:00:03.28 bitrate=   1.4kbits/s speed=0.0296x elapsed=0:01:51.05    \nframe=  199 fps=1.8 q=46.0 size=       1KiB time=00:00:03.30 bitrate=   1.4kbits/s speed=0.0296x elapsed=0:01:51.61    \nframe=  201 fps=1.8 q=38.0 size=       1KiB time=00:00:03.33 bitrate=   1.3kbits/s speed=0.0297x elapsed=0:01:52.15    \nframe=  203 fps=1.8 q=45.0 size=       1KiB time=00:00:03.35 bitrate=   1.3kbits/s speed=0.0297x elapsed=0:01:52.76    \nframe=  204 fps=1.8 q=46.0 size=       1KiB time=00:00:03.38 bitrate=   1.3kbits/s speed=0.0299x elapsed=0:01:53.27    \nframe=  206 fps=1.8 q=46.0 size=       1KiB time=00:00:03.41 bitrate=   1.3kbits/s speed=0.03x elapsed=0:01:53.85    \nframe=  207 fps=1.8 q=45.0 size=       1KiB time=00:00:03.43 bitrate=   1.3kbits/s speed=0.03x elapsed=0:01:54.35    \nframe=  207 fps=1.8 q=45.0 size=       1KiB time=00:00:03.43 bitrate=   1.3kbits/s speed=0.0299x elapsed=0:01:54.87    \nframe=  208 fps=1.8 q=46.0 size=       1KiB time=00:00:03.45 bitrate=   1.3kbits/s speed=0.0299x elapsed=0:01:55.39    \nframe=  211 fps=1.8 q=45.0 size=       1KiB time=00:00:03.50 bitrate=   1.3kbits/s speed=0.0302x elapsed=0:01:55.92    \nframe=  213 fps=1.8 q=44.0 size=       1KiB time=00:00:03.53 bitrate=   1.3kbits/s speed=0.0303x elapsed=0:01:56.45    \nframe=  214 fps=1.8 q=46.0 size=       1KiB time=00:00:03.55 bitrate=   1.3kbits/s speed=0.0303x elapsed=0:01:57.02    \nframe=  215 fps=1.8 q=45.0 size=       1KiB time=00:00:03.56 bitrate=   1.3kbits/s speed=0.0303x elapsed=0:01:57.58    \nframe=  216 fps=1.8 q=46.0 size=       1KiB time=00:00:03.58 bitrate=   1.3kbits/s speed=0.0303x elapsed=0:01:58.13    \nframe=  217 fps=1.8 q=39.0 size=       1KiB time=00:00:03.60 bitrate=   1.2kbits/s speed=0.0303x elapsed=0:01:58.65    \nframe=  218 fps=1.8 q=46.0 size=       1KiB time=00:00:03.61 bitrate=   1.2kbits/s speed=0.0303x elapsed=0:01:59.18    \nframe=  222 fps=1.9 q=46.0 size=       1KiB time=00:00:03.68 bitrate=   1.2kbits/s speed=0.0308x elapsed=0:01:59.71    \nframe=  222 fps=1.8 q=46.0 size=       1KiB time=00:00:03.68 bitrate=   1.2kbits/s speed=0.0306x elapsed=0:02:00.24    \nframe=  224 fps=1.9 q=46.0 size=       1KiB time=00:00:03.71 bitrate=   1.2kbits/s speed=0.0308x elapsed=0:02:00.78    \nframe=  225 fps=1.9 q=31.0 size=       1KiB time=00:00:03.73 bitrate=   1.2kbits/s speed=0.0308x elapsed=0:02:01.29    \nframe=  227 fps=1.9 q=45.0 size=       1KiB time=00:00:03.76 bitrate=   1.2kbits/s speed=0.0309x elapsed=0:02:01.82    \nframe=  229 fps=1.9 q=43.0 size=       1KiB time=00:00:03.80 bitrate=   1.2kbits/s speed=0.031x elapsed=0:02:02.40    \nframe=  230 fps=1.9 q=46.0 size=       1KiB time=00:00:03.81 bitrate=   1.2kbits/s speed=0.031x elapsed=0:02:02.98    \nframe=  231 fps=1.9 q=45.0 size=       1KiB time=00:00:03.83 bitrate=   1.2kbits/s speed=0.031x elapsed=0:02:03.54    \nframe=  233 fps=1.9 q=39.0 size=       1KiB time=00:00:03.86 bitrate=   1.2kbits/s speed=0.0311x elapsed=0:02:04.14    \nframe=  235 fps=1.9 q=46.0 size=       1KiB time=00:00:03.90 bitrate=   1.1kbits/s speed=0.0313x elapsed=0:02:04.68    \nframe=  235 fps=1.9 q=46.0 size=       1KiB time=00:00:03.90 bitrate=   1.1kbits/s speed=0.0311x elapsed=0:02:05.22    \nframe=  238 fps=1.9 q=45.0 size=       1KiB time=00:00:03.95 bitrate=   1.1kbits/s speed=0.0314x elapsed=0:02:05.76    \nframe=  240 fps=1.9 q=43.0 size=       1KiB time=00:00:03.98 bitrate=   1.1kbits/s speed=0.0315x elapsed=0:02:06.30    \nframe=  242 fps=1.9 q=46.0 size=       1KiB time=00:00:04.01 bitrate=   1.1kbits/s speed=0.0317x elapsed=0:02:06.83    \nframe=  244 fps=1.9 q=46.0 size=       1KiB time=00:00:04.05 bitrate=   1.1kbits/s speed=0.0318x elapsed=0:02:07.38    \nframe=  246 fps=1.9 q=46.0 size=       1KiB time=00:00:04.08 bitrate=   1.1kbits/s speed=0.0319x elapsed=0:02:07.91    \nframe=  247 fps=1.9 q=45.0 size=       1KiB time=00:00:04.10 bitrate=   1.1kbits/s speed=0.0319x elapsed=0:02:08.49    \nframe=  249 fps=1.9 q=40.0 size=       1KiB time=00:00:04.13 bitrate=   1.1kbits/s speed=0.032x elapsed=0:02:09.02    \nframe=  250 fps=1.9 q=46.0 size=       1KiB time=00:00:04.15 bitrate=   1.1kbits/s speed=0.032x elapsed=0:02:09.55    \nframe=  251 fps=1.9 q=45.0 size=       1KiB time=00:00:04.16 bitrate=   1.1kbits/s speed=0.032x elapsed=0:02:10.10    \nframe=  253 fps=1.9 q=44.0 size=       1KiB time=00:00:04.20 bitrate=   1.1kbits/s speed=0.0321x elapsed=0:02:10.66    \nframe=  254 fps=1.9 q=46.0 size=       1KiB time=00:00:04.21 bitrate=   1.1kbits/s speed=0.0321x elapsed=0:02:11.19    \nframe=  254 fps=1.9 q=46.0 size=       1KiB time=00:00:04.21 bitrate=   1.1kbits/s speed=0.032x elapsed=0:02:11.76    \nframe=  255 fps=1.9 q=45.0 size=       1KiB time=00:00:04.23 bitrate=   1.1kbits/s speed=0.032x elapsed=0:02:12.28    \nframe=  256 fps=1.9 q=46.0 size=       1KiB time=00:00:04.25 bitrate=   1.1kbits/s speed=0.032x elapsed=0:02:12.79    \nframe=  258 fps=1.9 q=48.0 size=       1KiB time=00:00:04.28 bitrate=   1.0kbits/s speed=0.0321x elapsed=0:02:13.35    \nframe=  259 fps=1.9 q=46.0 size=       1KiB time=00:00:04.30 bitrate=   1.0kbits/s speed=0.0321x elapsed=0:02:13.90    \nframe=  261 fps=1.9 q=44.0 size=       1KiB time=00:00:04.33 bitrate=   1.0kbits/s speed=0.0322x elapsed=0:02:14.46    \nframe=  262 fps=1.9 q=48.0 size=       1KiB time=00:00:04.35 bitrate=   1.0kbits/s speed=0.0322x elapsed=0:02:15.00    \nframe=  263 fps=1.9 q=47.0 size=       1KiB time=00:00:04.36 bitrate=   1.0kbits/s speed=0.0322x elapsed=0:02:15.53    \nframe=  266 fps=2.0 q=49.0 size=       1KiB time=00:00:04.41 bitrate=   1.0kbits/s speed=0.0325x elapsed=0:02:16.04    \nframe=  267 fps=2.0 q=48.0 size=       1KiB time=00:00:04.43 bitrate=   1.0kbits/s speed=0.0325x elapsed=0:02:16.56    \nframe=  270 fps=2.0 q=47.0 size=       1KiB time=00:00:04.46 bitrate=   1.0kbits/s speed=0.0326x elapsed=0:02:17.07    \nframe=  272 fps=2.0 q=47.0 size=       1KiB time=00:00:04.51 bitrate=   1.0kbits/s speed=0.0328x elapsed=0:02:17.64    \nframe=  273 fps=2.0 q=31.0 size=       1KiB time=00:00:04.53 bitrate=   1.0kbits/s speed=0.0328x elapsed=0:02:18.16    \nframe=  275 fps=2.0 q=48.0 size=       1KiB time=00:00:04.56 bitrate=   1.0kbits/s speed=0.0329x elapsed=0:02:18.71    \nframe=  277 fps=2.0 q=46.0 size=       1KiB time=00:00:04.60 bitrate=   1.0kbits/s speed=0.033x elapsed=0:02:19.26    \nframe=  278 fps=2.0 q=49.0 size=       1KiB time=00:00:04.61 bitrate=   1.0kbits/s speed=0.033x elapsed=0:02:19.77    \nframe=  280 fps=2.0 q=49.0 size=       1KiB time=00:00:04.65 bitrate=   1.0kbits/s speed=0.0331x elapsed=0:02:20.30    \nframe=  282 fps=2.0 q=50.0 size=       1KiB time=00:00:04.66 bitrate=   1.0kbits/s speed=0.0331x elapsed=0:02:20.87    \nframe=  283 fps=2.0 q=49.0 size=       1KiB time=00:00:04.70 bitrate=   1.0kbits/s speed=0.0332x elapsed=0:02:21.45    \nframe=  285 fps=2.0 q=47.0 size=       1KiB time=00:00:04.73 bitrate=   0.9kbits/s speed=0.0333x elapsed=0:02:22.07    \nframe=  285 fps=2.0 q=47.0 size=       1KiB time=00:00:04.73 bitrate=   0.9kbits/s speed=0.0332x elapsed=0:02:22.67    \nframe=  286 fps=2.0 q=50.0 size=       1KiB time=00:00:04.75 bitrate=   0.9kbits/s speed=0.0332x elapsed=0:02:23.20    \nframe=  287 fps=2.0 q=49.0 size=       1KiB time=00:00:04.76 bitrate=   0.9kbits/s speed=0.0332x elapsed=0:02:23.75    \nframe=  290 fps=2.0 q=51.0 size=       1KiB time=00:00:04.80 bitrate=   0.9kbits/s speed=0.0333x elapsed=0:02:24.31    \nframe=  291 fps=2.0 q=50.0 size=       1KiB time=00:00:04.83 bitrate=   0.9kbits/s speed=0.0334x elapsed=0:02:24.87    \nframe=  294 fps=2.0 q=51.0 size=       1KiB time=00:00:04.88 bitrate=   0.9kbits/s speed=0.0336x elapsed=0:02:25.41    \nframe=  295 fps=2.0 q=50.0 size=       1KiB time=00:00:04.90 bitrate=   0.9kbits/s speed=0.0336x elapsed=0:02:25.96    \nframe=  298 fps=2.0 q=51.0 size=       1KiB time=00:00:04.95 bitrate=   0.9kbits/s speed=0.0338x elapsed=0:02:26.48    \nframe=  301 fps=2.0 q=48.0 size=       1KiB time=00:00:05.00 bitrate=   0.9kbits/s speed=0.034x elapsed=0:02:27.04    \nframe=  303 fps=2.1 q=48.0 size=     768KiB time=00:00:05.03 bitrate=1250.0kbits/s speed=0.0341x elapsed=0:02:27.60    \nframe=  308 fps=2.1 q=52.0 size=     768KiB time=00:00:05.10 bitrate=1233.6kbits/s speed=0.0344x elapsed=0:02:28.13    \nframe=  310 fps=2.1 q=52.0 size=     768KiB time=00:00:05.15 bitrate=1221.6kbits/s speed=0.0346x elapsed=0:02:28.70    \nframe=  312 fps=2.1 q=52.0 size=     768KiB time=00:00:05.18 bitrate=1213.8kbits/s speed=0.0347x elapsed=0:02:29.26    \nframe=  314 fps=2.1 q=52.0 size=     768KiB time=00:00:05.21 bitrate=1206.0kbits/s speed=0.0348x elapsed=0:02:29.81    \nframe=  316 fps=2.1 q=52.0 size=     768KiB time=00:00:05.25 bitrate=1198.4kbits/s speed=0.0349x elapsed=0:02:30.34    \nframe=  318 fps=2.1 q=52.0 size=     768KiB time=00:00:05.28 bitrate=1190.8kbits/s speed=0.035x elapsed=0:02:30.86    \nframe=  318 fps=2.1 q=52.0 size=     768KiB time=00:00:05.28 bitrate=1190.8kbits/s speed=0.0349x elapsed=0:02:31.42    \nframe=  318 fps=2.1 q=52.0 size=     768KiB time=00:00:05.28 bitrate=1190.8kbits/s speed=0.0348x elapsed=0:02:31.97    \nframe=  318 fps=2.1 q=52.0 size=     768KiB time=00:00:05.28 bitrate=1190.8kbits/s speed=0.0346x elapsed=0:02:32.56    \nframe=  318 fps=2.1 q=52.0 size=     768KiB time=00:00:05.28 bitrate=1190.8kbits/s speed=0.0345x elapsed=0:02:33.17    \nframe=  318 fps=2.1 q=52.0 size=     768KiB time=00:00:05.28 bitrate=1190.8kbits/s speed=0.0344x elapsed=0:02:33.78    \nframe=  318 fps=2.1 q=52.0 size=     768KiB time=00:00:05.28 bitrate=1190.8kbits/s speed=0.0342x elapsed=0:02:34.33    \nframe=  318 fps=2.1 q=52.0 size=     768KiB time=00:00:05.28 bitrate=1190.8kbits/s speed=0.0341x elapsed=0:02:34.87    \nframe=  318 fps=2.0 q=52.0 size=     768KiB time=00:00:05.28 bitrate=1190.8kbits/s speed=0.034x elapsed=0:02:35.41    \nframe=  319 fps=2.0 q=51.0 size=     768KiB time=00:00:05.30 bitrate=1187.1kbits/s speed=0.034x elapsed=0:02:35.96    \nframe=  320 fps=2.0 q=48.0 size=     768KiB time=00:00:05.31 bitrate=1183.3kbits/s speed=0.034x elapsed=0:02:36.50    \nframe=  322 fps=2.1 q=29.0 size=     768KiB time=00:00:05.33 bitrate=1179.6kbits/s speed=0.034x elapsed=0:02:37.02    \nframe=  326 fps=2.1 q=50.0 size=     768KiB time=00:00:05.41 bitrate=1161.5kbits/s speed=0.0344x elapsed=0:02:37.57    \nframe=  328 fps=2.1 q=52.0 size=     768KiB time=00:00:05.45 bitrate=1154.4kbits/s speed=0.0345x elapsed=0:02:38.09    \nframe=  331 fps=2.1 q=53.0 size=     768KiB time=00:00:05.50 bitrate=1143.9kbits/s speed=0.0347x elapsed=0:02:38.62    \nframe=  332 fps=2.1 q=52.0 size=     768KiB time=00:00:05.51 bitrate=1140.4kbits/s speed=0.0347x elapsed=0:02:39.15    \nframe=  334 fps=2.1 q=50.0 size=     768KiB time=00:00:05.55 bitrate=1133.6kbits/s speed=0.0348x elapsed=0:02:39.68    \nframe=  335 fps=2.1 q=53.0 size=     768KiB time=00:00:05.56 bitrate=1130.2kbits/s speed=0.0347x elapsed=0:02:40.21    \nframe=  336 fps=2.1 q=52.0 size=     768KiB time=00:00:05.58 bitrate=1126.8kbits/s speed=0.0347x elapsed=0:02:40.76    \nframe=  339 fps=2.1 q=54.0 size=     768KiB time=00:00:05.61 bitrate=1120.1kbits/s speed=0.0348x elapsed=0:02:41.29    \nframe=  340 fps=2.1 q=53.0 size=     768KiB time=00:00:05.65 bitrate=1113.5kbits/s speed=0.0349x elapsed=0:02:41.85    \nframe=  343 fps=2.1 q=54.0 size=     768KiB time=00:00:05.70 bitrate=1103.8kbits/s speed=0.0351x elapsed=0:02:42.36    \nframe=  346 fps=2.1 q=47.0 size=     768KiB time=00:00:05.73 bitrate=1097.3kbits/s speed=0.0352x elapsed=0:02:42.88    \nframe=  348 fps=2.1 q=53.0 size=     768KiB time=00:00:05.78 bitrate=1087.9kbits/s speed=0.0354x elapsed=0:02:43.45    \nframe=  350 fps=2.1 q=51.0 size=     768KiB time=00:00:05.81 bitrate=1081.6kbits/s speed=0.0355x elapsed=0:02:43.99    \nframe=  350 fps=2.1 q=51.0 size=     768KiB time=00:00:05.81 bitrate=1081.6kbits/s speed=0.0354x elapsed=0:02:44.50    \nframe=  351 fps=2.1 q=54.0 size=     768KiB time=00:00:05.83 bitrate=1078.5kbits/s speed=0.0353x elapsed=0:02:45.01    \nframe=  353 fps=2.1 q=54.0 size=     768KiB time=00:00:05.86 bitrate=1072.4kbits/s speed=0.0354x elapsed=0:02:45.60    \nframe=  354 fps=2.1 q=39.0 size=     768KiB time=00:00:05.88 bitrate=1069.4kbits/s speed=0.0354x elapsed=0:02:46.11    \nframe=  356 fps=2.1 q=53.0 size=     768KiB time=00:00:05.91 bitrate=1063.3kbits/s speed=0.0355x elapsed=0:02:46.67    \nframe=  359 fps=2.1 q=54.0 size=     768KiB time=00:00:05.96 bitrate=1054.4kbits/s speed=0.0357x elapsed=0:02:47.20    \nframe=  361 fps=2.2 q=54.0 size=     768KiB time=00:00:06.00 bitrate=1048.6kbits/s speed=0.0358x elapsed=0:02:47.75    \nframe=  365 fps=2.2 q=54.0 size=     768KiB time=00:00:06.06 bitrate=1037.1kbits/s speed=0.036x elapsed=0:02:48.32    \nframe=  368 fps=2.2 q=51.0 size=     768KiB time=00:00:06.10 bitrate=1031.4kbits/s speed=0.0361x elapsed=0:02:48.86    \nframe=  369 fps=2.2 q=53.0 size=     768KiB time=00:00:06.13 bitrate=1025.8kbits/s speed=0.0362x elapsed=0:02:49.46    \nframe=  371 fps=2.2 q=54.0 size=     768KiB time=00:00:06.16 bitrate=1020.2kbits/s speed=0.0363x elapsed=0:02:50.08    \nframe=  375 fps=2.2 q=54.0 size=     768KiB time=00:00:06.21 bitrate=1012.0kbits/s speed=0.0364x elapsed=0:02:50.68    \nframe=  376 fps=2.2 q=53.0 size=     768KiB time=00:00:06.25 bitrate=1006.6kbits/s speed=0.0365x elapsed=0:02:51.24    \nframe=  379 fps=2.2 q=54.0 size=     768KiB time=00:00:06.30 bitrate= 998.6kbits/s speed=0.0367x elapsed=0:02:51.82    \nframe=  382 fps=2.2 q=51.0 size=     768KiB time=00:00:06.35 bitrate= 990.8kbits/s speed=0.0368x elapsed=0:02:52.32    \nframe=  384 fps=2.2 q=53.0 size=     768KiB time=00:00:06.38 bitrate= 985.6kbits/s speed=0.0369x elapsed=0:02:52.85    \nframe=  386 fps=2.2 q=42.0 size=     768KiB time=00:00:06.41 bitrate= 980.5kbits/s speed=0.037x elapsed=0:02:53.39    \nframe=  389 fps=2.2 q=54.0 size=     768KiB time=00:00:06.46 bitrate= 972.9kbits/s speed=0.0372x elapsed=0:02:53.90    \nframe=  391 fps=2.2 q=54.0 size=     768KiB time=00:00:06.50 bitrate= 967.9kbits/s speed=0.0373x elapsed=0:02:54.42    \nframe=  392 fps=2.2 q=53.0 size=     768KiB time=00:00:06.51 bitrate= 965.4kbits/s speed=0.0372x elapsed=0:02:54.94    \nframe=  394 fps=2.2 q=48.0 size=     768KiB time=00:00:06.55 bitrate= 960.5kbits/s speed=0.0373x elapsed=0:02:55.47    \nframe=  397 fps=2.3 q=54.0 size=     768KiB time=00:00:06.60 bitrate= 953.3kbits/s speed=0.0375x elapsed=0:02:56.06    \nframe=  399 fps=2.3 q=53.0 size=     768KiB time=00:00:06.63 bitrate= 948.5kbits/s speed=0.0376x elapsed=0:02:56.60    \nframe=  402 fps=2.3 q=41.0 size=     768KiB time=00:00:06.68 bitrate= 941.4kbits/s speed=0.0377x elapsed=0:02:57.16    \nframe=  404 fps=2.3 q=53.0 size=     768KiB time=00:00:06.71 bitrate= 936.7kbits/s speed=0.0378x elapsed=0:02:57.77    \nframe=  406 fps=2.3 q=51.0 size=     768KiB time=00:00:06.75 bitrate= 932.1kbits/s speed=0.0379x elapsed=0:02:58.32    \nframe=  409 fps=2.3 q=54.0 size=     768KiB time=00:00:06.80 bitrate= 925.2kbits/s speed=0.038x elapsed=0:02:58.85    \nframe=  410 fps=2.3 q=48.0 size=     768KiB time=00:00:06.81 bitrate= 923.0kbits/s speed=0.038x elapsed=0:02:59.42    \nframe=  412 fps=2.3 q=53.0 size=     768KiB time=00:00:06.85 bitrate= 918.5kbits/s speed=0.0381x elapsed=0:02:59.95    \nframe=  413 fps=2.3 q=54.0 size=     768KiB time=00:00:06.86 bitrate= 916.2kbits/s speed=0.038x elapsed=0:03:00.51    \nframe=  415 fps=2.3 q=52.0 size=     768KiB time=00:00:06.90 bitrate= 911.8kbits/s speed=0.0381x elapsed=0:03:01.12    \nframe=  417 fps=2.3 q=52.0 size=     768KiB time=00:00:06.93 bitrate= 907.4kbits/s speed=0.0382x elapsed=0:03:01.64    \nframe=  418 fps=2.3 q=41.0 size=     768KiB time=00:00:06.95 bitrate= 905.2kbits/s speed=0.0382x elapsed=0:03:02.15    \nframe=  420 fps=2.3 q=52.0 size=     768KiB time=00:00:06.98 bitrate= 900.9kbits/s speed=0.0382x elapsed=0:03:02.67    \nframe=  421 fps=2.3 q=53.0 size=     768KiB time=00:00:07.00 bitrate= 898.8kbits/s speed=0.0382x elapsed=0:03:03.19    \nframe=  422 fps=2.3 q=50.0 size=     768KiB time=00:00:07.01 bitrate= 896.6kbits/s speed=0.0382x elapsed=0:03:03.70    \nframe=  423 fps=2.3 q=53.0 size=     768KiB time=00:00:07.03 bitrate= 894.5kbits/s speed=0.0382x elapsed=0:03:04.22    \nframe=  425 fps=2.3 q=53.0 size=     768KiB time=00:00:07.06 bitrate= 890.3kbits/s speed=0.0383x elapsed=0:03:04.74    \nframe=  426 fps=2.3 q=47.0 size=     768KiB time=00:00:07.08 bitrate= 888.2kbits/s speed=0.0382x elapsed=0:03:05.25    \nframe=  428 fps=2.3 q=52.0 size=     768KiB time=00:00:07.11 bitrate= 884.0kbits/s speed=0.0383x elapsed=0:03:05.76    \nframe=  429 fps=2.3 q=50.0 size=     768KiB time=00:00:07.13 bitrate= 882.0kbits/s speed=0.0383x elapsed=0:03:06.29    \nframe=  433 fps=2.3 q=52.0 size=     768KiB time=00:00:07.20 bitrate= 873.8kbits/s speed=0.0385x elapsed=0:03:06.80    \nframe=  436 fps=2.3 q=52.0 size=     768KiB time=00:00:07.25 bitrate= 867.8kbits/s speed=0.0387x elapsed=0:03:07.31    \nframe=  438 fps=2.3 q=50.0 size=     768KiB time=00:00:07.28 bitrate= 863.8kbits/s speed=0.0388x elapsed=0:03:07.83    \nframe=  440 fps=2.3 q=52.0 size=     768KiB time=00:00:07.31 bitrate= 859.9kbits/s speed=0.0388x elapsed=0:03:08.34    \nframe=  442 fps=2.3 q=46.0 size=     768KiB time=00:00:07.35 bitrate= 856.0kbits/s speed=0.0389x elapsed=0:03:08.86    \nframe=  443 fps=2.3 q=53.0 size=     768KiB time=00:00:07.36 bitrate= 854.0kbits/s speed=0.0389x elapsed=0:03:09.37    \nframe=  445 fps=2.3 q=53.0 size=     768KiB time=00:00:07.40 bitrate= 850.2kbits/s speed=0.039x elapsed=0:03:09.89    \nframe=  446 fps=2.3 q=50.0 size=     768KiB time=00:00:07.41 bitrate= 848.3kbits/s speed=0.039x elapsed=0:03:10.40    \nframe=  447 fps=2.3 q=53.0 size=     768KiB time=00:00:07.43 bitrate= 846.4kbits/s speed=0.0389x elapsed=0:03:10.92    \nframe=  448 fps=2.3 q=52.0 size=     768KiB time=00:00:07.45 bitrate= 844.5kbits/s speed=0.0389x elapsed=0:03:11.44    \nframe=  450 fps=2.3 q=39.0 size=     768KiB time=00:00:07.48 bitrate= 840.7kbits/s speed=0.039x elapsed=0:03:11.96    \nframe=  452 fps=2.3 q=52.0 size=     768KiB time=00:00:07.51 bitrate= 837.0kbits/s speed=0.0391x elapsed=0:03:12.47    \nframe=  454 fps=2.4 q=50.0 size=     768KiB time=00:00:07.55 bitrate= 833.3kbits/s speed=0.0391x elapsed=0:03:12.99    \nframe=  456 fps=2.4 q=52.0 size=     768KiB time=00:00:07.58 bitrate= 829.6kbits/s speed=0.0392x elapsed=0:03:13.50    \nframe=  458 fps=2.4 q=46.0 size=     768KiB time=00:00:07.61 bitrate= 826.0kbits/s speed=0.0393x elapsed=0:03:14.02    \nframe=  461 fps=2.4 q=53.0 size=     768KiB time=00:00:07.66 bitrate= 820.6kbits/s speed=0.0394x elapsed=0:03:14.53    \nframe=  461 fps=2.4 q=53.0 size=     768KiB time=00:00:07.66 bitrate= 820.6kbits/s speed=0.0393x elapsed=0:03:15.05    \nframe=  461 fps=2.4 q=53.0 size=     768KiB time=00:00:07.66 bitrate= 820.6kbits/s speed=0.0392x elapsed=0:03:15.57    \nframe=  461 fps=2.4 q=53.0 size=     768KiB time=00:00:07.66 bitrate= 820.6kbits/s speed=0.0391x elapsed=0:03:16.07    \nframe=  462 fps=2.3 q=50.0 size=     768KiB time=00:00:07.68 bitrate= 818.8kbits/s speed=0.0391x elapsed=0:03:16.59    \nframe=  463 fps=2.3 q=53.0 size=     768KiB time=00:00:07.70 bitrate= 817.1kbits/s speed=0.0391x elapsed=0:03:17.11    \nframe=  464 fps=2.3 q=52.0 size=     768KiB time=00:00:07.71 bitrate= 815.3kbits/s speed=0.039x elapsed=0:03:17.63    \nframe=  466 fps=2.4 q=38.0 size=     768KiB time=00:00:07.75 bitrate= 811.8kbits/s speed=0.0391x elapsed=0:03:18.14    \nframe=  468 fps=2.4 q=51.0 size=     768KiB time=00:00:07.78 bitrate= 808.3kbits/s speed=0.0392x elapsed=0:03:18.65    \nframe=  470 fps=2.4 q=49.0 size=     768KiB time=00:00:07.81 bitrate= 804.9kbits/s speed=0.0392x elapsed=0:03:19.17    \nframe=  471 fps=2.4 q=52.0 size=     768KiB time=00:00:07.83 bitrate= 803.2kbits/s speed=0.0392x elapsed=0:03:19.68    \nframe=  474 fps=2.4 q=45.0 size=     768KiB time=00:00:07.86 bitrate= 799.8kbits/s speed=0.0393x elapsed=0:03:20.30    \nframe=  477 fps=2.4 q=52.0 size=     768KiB time=00:00:07.91 bitrate= 794.7kbits/s speed=0.0393x elapsed=0:03:21.19    \nframe=  477 fps=2.4 q=52.0 size=     768KiB time=00:00:07.93 bitrate= 793.0kbits/s speed=0.0393x elapsed=0:03:21.91    \nframe=  477 fps=2.4 q=52.0 size=     768KiB time=00:00:07.93 bitrate= 793.0kbits/s speed=0.0392x elapsed=0:03:22.62    \nframe=  478 fps=2.3 q=49.0 size=     768KiB time=00:00:07.95 bitrate= 791.4kbits/s speed=0.0391x elapsed=0:03:23.40    \nframe=  480 fps=2.3 q=51.0 size=     768KiB time=00:00:07.96 bitrate= 789.7kbits/s speed=0.039x elapsed=0:03:24.29    \nframe=  483 fps=2.4 q=52.0 size=     768KiB time=00:00:08.01 bitrate= 784.8kbits/s speed=0.0391x elapsed=0:03:25.14    \nframe=  487 fps=2.4 q=52.0 size=     768KiB time=00:00:08.08 bitrate= 778.3kbits/s speed=0.0392x elapsed=0:03:26.00    \nframe=  490 fps=2.4 q=45.0 size=     768KiB time=00:00:08.15 bitrate= 772.0kbits/s speed=0.0394x elapsed=0:03:26.92    \nframe=  493 fps=2.4 q=52.0 size=     768KiB time=00:00:08.20 bitrate= 767.3kbits/s speed=0.0395x elapsed=0:03:27.82    \nframe=  493 fps=2.4 q=52.0 size=     768KiB time=00:00:08.20 bitrate= 767.3kbits/s speed=0.0393x elapsed=0:03:28.43    \nframe=  493 fps=2.4 q=52.0 size=     768KiB time=00:00:08.20 bitrate= 767.3kbits/s speed=0.0392x elapsed=0:03:28.95    \nframe=  493 fps=2.4 q=52.0 size=     768KiB time=00:00:08.20 bitrate= 767.3kbits/s speed=0.0391x elapsed=0:03:29.47    \nframe=  493 fps=2.3 q=52.0 size=     768KiB time=00:00:08.20 bitrate= 767.3kbits/s speed=0.039x elapsed=0:03:30.01    \nframe=  493 fps=2.3 q=52.0 size=     768KiB time=00:00:08.20 bitrate= 767.3kbits/s speed=0.0389x elapsed=0:03:30.54    \nframe=  494 fps=2.3 q=49.0 size=     768KiB time=00:00:08.21 bitrate= 765.7kbits/s speed=0.0389x elapsed=0:03:31.19    \nframe=  496 fps=2.3 q=51.0 size=     768KiB time=00:00:08.25 bitrate= 762.6kbits/s speed=0.039x elapsed=0:03:31.78    \nframe=  499 fps=2.4 q=52.0 size=     768KiB time=00:00:08.30 bitrate= 758.0kbits/s speed=0.0391x elapsed=0:03:32.31    \nframe=  501 fps=2.4 q=52.0 size=     768KiB time=00:00:08.33 bitrate= 755.0kbits/s speed=0.0392x elapsed=0:03:32.83    \nframe=  502 fps=2.4 q=49.0 size=     768KiB time=00:00:08.35 bitrate= 753.5kbits/s speed=0.0391x elapsed=0:03:33.35    \nframe=  506 fps=2.4 q=45.0 size=     768KiB time=00:00:08.41 bitrate= 747.5kbits/s speed=0.0394x elapsed=0:03:33.85    \nframe=  510 fps=2.4 q=49.0 size=     768KiB time=00:00:08.48 bitrate= 741.6kbits/s speed=0.0396x elapsed=0:03:34.37    \nframe=  514 fps=2.4 q=36.0 size=     768KiB time=00:00:08.55 bitrate= 735.8kbits/s speed=0.0398x elapsed=0:03:34.88    \nframe=  514 fps=2.4 q=36.0 size=     768KiB time=00:00:08.55 bitrate= 735.8kbits/s speed=0.0397x elapsed=0:03:35.41    \nframe=  514 fps=2.4 q=36.0 size=     768KiB time=00:00:08.55 bitrate= 735.8kbits/s speed=0.0396x elapsed=0:03:35.92    \nframe=  514 fps=2.4 q=36.0 size=     768KiB time=00:00:08.55 bitrate= 735.8kbits/s speed=0.0395x elapsed=0:03:36.44    \nframe=  514 fps=2.4 q=36.0 size=     768KiB time=00:00:08.55 bitrate= 735.8kbits/s speed=0.0394x elapsed=0:03:36.96    \nframe=  514 fps=2.4 q=36.0 size=     768KiB time=00:00:08.55 bitrate= 735.8kbits/s speed=0.0393x elapsed=0:03:37.47    \nframe=  514 fps=2.4 q=36.0 size=     768KiB time=00:00:08.55 bitrate= 735.8kbits/s speed=0.0392x elapsed=0:03:37.98    \nframe=  514 fps=2.4 q=36.0 size=     768KiB time=00:00:08.55 bitrate= 735.8kbits/s speed=0.0391x elapsed=0:03:38.50    \nframe=  514 fps=2.3 q=36.0 size=     768KiB time=00:00:08.55 bitrate= 735.8kbits/s speed=0.039x elapsed=0:03:39.02    \nframe=  514 fps=2.3 q=36.0 size=     768KiB time=00:00:08.55 bitrate= 735.8kbits/s speed=0.0389x elapsed=0:03:39.53    \nframe=  514 fps=2.3 q=36.0 size=     768KiB time=00:00:08.55 bitrate= 735.8kbits/s speed=0.0389x elapsed=0:03:40.05    \nframe=  514 fps=2.3 q=36.0 size=     768KiB time=00:00:08.55 bitrate= 735.8kbits/s speed=0.0388x elapsed=0:03:40.56    \nframe=  516 fps=2.3 q=51.0 size=     768KiB time=00:00:08.58 bitrate= 733.0kbits/s speed=0.0388x elapsed=0:03:41.08    \nframe=  520 fps=2.3 q=51.0 size=     768KiB time=00:00:08.65 bitrate= 727.3kbits/s speed=0.039x elapsed=0:03:41.59    \nframe=  522 fps=2.4 q=44.0 size=     768KiB time=00:00:08.68 bitrate= 724.5kbits/s speed=0.0391x elapsed=0:03:42.10    \nframe=  522 fps=2.3 q=44.0 size=     768KiB time=00:00:08.68 bitrate= 724.5kbits/s speed=0.039x elapsed=0:03:42.62    \nframe=  526 fps=2.4 q=49.0 size=     768KiB time=00:00:08.75 bitrate= 719.0kbits/s speed=0.0392x elapsed=0:03:43.15    \nframe=  526 fps=2.4 q=49.0 size=     768KiB time=00:00:08.75 bitrate= 719.0kbits/s speed=0.0391x elapsed=0:03:43.65    \nframe=  530 fps=2.4 q=35.0 size=     768KiB time=00:00:08.81 bitrate= 713.6kbits/s speed=0.0393x elapsed=0:03:44.18    \nframe=  530 fps=2.4 q=35.0 size=     768KiB time=00:00:08.81 bitrate= 713.6kbits/s speed=0.0392x elapsed=0:03:44.68    \nframe=  530 fps=2.4 q=35.0 size=     768KiB time=00:00:08.81 bitrate= 713.6kbits/s speed=0.0391x elapsed=0:03:45.21    \nframe=  530 fps=2.3 q=35.0 size=     768KiB time=00:00:08.81 bitrate= 713.6kbits/s speed=0.0391x elapsed=0:03:45.72    \nframe=  530 fps=2.3 q=35.0 size=     768KiB time=00:00:08.81 bitrate= 713.6kbits/s speed=0.039x elapsed=0:03:46.24    \nframe=  532 fps=2.3 q=51.0 size=     768KiB time=00:00:08.85 bitrate= 710.9kbits/s speed=0.039x elapsed=0:03:46.75    \nframe=  536 fps=2.4 q=51.0 size=     768KiB time=00:00:08.91 bitrate= 705.6kbits/s speed=0.0392x elapsed=0:03:47.27    \nframe=  538 fps=2.4 q=45.0 size=     768KiB time=00:00:08.95 bitrate= 703.0kbits/s speed=0.0393x elapsed=0:03:47.79    \nframe=  540 fps=2.4 q=51.0 size=     768KiB time=00:00:08.98 bitrate= 700.3kbits/s speed=0.0393x elapsed=0:03:48.32    \nframe=  542 fps=2.4 q=49.0 size=     768KiB time=00:00:09.01 bitrate= 697.8kbits/s speed=0.0394x elapsed=0:03:48.83    \nframe=  544 fps=2.4 q=51.0 size=     768KiB time=00:00:09.05 bitrate= 695.2kbits/s speed=0.0395x elapsed=0:03:49.35    \nframe=  546 fps=2.4 q=37.0 size=     768KiB time=00:00:09.08 bitrate= 692.6kbits/s speed=0.0395x elapsed=0:03:49.87    \nframe=  546 fps=2.4 q=37.0 size=     768KiB time=00:00:09.08 bitrate= 692.6kbits/s speed=0.0394x elapsed=0:03:50.37    \nframe=  546 fps=2.4 q=37.0 size=     768KiB time=00:00:09.08 bitrate= 692.6kbits/s speed=0.0393x elapsed=0:03:50.90    \nframe=  546 fps=2.4 q=37.0 size=     768KiB time=00:00:09.08 bitrate= 692.6kbits/s speed=0.0393x elapsed=0:03:51.40    \nframe=  546 fps=2.4 q=37.0 size=     768KiB time=00:00:09.08 bitrate= 692.6kbits/s speed=0.0392x elapsed=0:03:51.93    \nframe=  548 fps=2.4 q=51.0 size=     768KiB time=00:00:09.11 bitrate= 690.1kbits/s speed=0.0392x elapsed=0:03:52.44    \nframe=  550 fps=2.4 q=49.0 size=     768KiB time=00:00:09.15 bitrate= 687.6kbits/s speed=0.0393x elapsed=0:03:52.96    \nframe=  554 fps=2.4 q=45.0 size=     768KiB time=00:00:09.21 bitrate= 682.6kbits/s speed=0.0395x elapsed=0:03:53.48    \nframe=  554 fps=2.4 q=45.0 size=     768KiB time=00:00:09.21 bitrate= 682.6kbits/s speed=0.0394x elapsed=0:03:54.00    \nframe=  556 fps=2.4 q=51.0 size=     768KiB time=00:00:09.25 bitrate= 680.2kbits/s speed=0.0394x elapsed=0:03:54.51    \nframe=  558 fps=2.4 q=49.0 size=     768KiB time=00:00:09.28 bitrate= 677.7kbits/s speed=0.0395x elapsed=0:03:55.03    \nframe=  558 fps=2.4 q=49.0 size=     768KiB time=00:00:09.28 bitrate= 677.7kbits/s speed=0.0394x elapsed=0:03:55.55    \nframe=  562 fps=2.4 q=37.0 size=     768KiB time=00:00:09.35 bitrate= 672.9kbits/s speed=0.0396x elapsed=0:03:56.07    \nframe=  566 fps=2.4 q=49.0 size=     768KiB time=00:00:09.41 bitrate= 668.1kbits/s speed=0.0398x elapsed=0:03:56.58    \nframe=  566 fps=2.4 q=49.0 size=     768KiB time=00:00:09.41 bitrate= 668.1kbits/s speed=0.0397x elapsed=0:03:57.09    \nframe=  570 fps=2.4 q=46.0 size=     768KiB time=00:00:09.48 bitrate= 663.4kbits/s speed=0.0399x elapsed=0:03:57.61    \nframe=  570 fps=2.4 q=46.0 size=     768KiB time=00:00:09.48 bitrate= 663.4kbits/s speed=0.0398x elapsed=0:03:58.12    \nframe=  570 fps=2.4 q=46.0 size=     768KiB time=00:00:09.48 bitrate= 663.4kbits/s speed=0.0397x elapsed=0:03:58.64    \nframe=  574 fps=2.4 q=49.0 size=     768KiB time=00:00:09.55 bitrate= 658.8kbits/s speed=0.0399x elapsed=0:03:59.16    \nframe=  574 fps=2.4 q=49.0 size=     768KiB time=00:00:09.55 bitrate= 658.8kbits/s speed=0.0398x elapsed=0:03:59.68    \nframe=  578 fps=2.4 q=38.0 size=     768KiB time=00:00:09.61 bitrate= 654.2kbits/s speed=0.04x elapsed=0:04:00.19    \nframe=  578 fps=2.4 q=38.0 size=     768KiB time=00:00:09.61 bitrate= 654.2kbits/s speed=0.04x elapsed=0:04:00.70    \nframe=  580 fps=2.4 q=51.0 size=     768KiB time=00:00:09.65 bitrate= 652.0kbits/s speed=0.04x elapsed=0:04:01.21    \nframe=  584 fps=2.4 q=53.0 size=     768KiB time=00:00:09.71 bitrate= 647.5kbits/s speed=0.0402x elapsed=0:04:01.74    \nframe=  586 fps=2.4 q=45.0 size=     768KiB time=00:00:09.75 bitrate= 645.3kbits/s speed=0.0402x elapsed=0:04:02.24    \nframe=  590 fps=2.4 q=53.0 size=     768KiB time=00:00:09.81 bitrate= 640.9kbits/s speed=0.0404x elapsed=0:04:02.76    \n[out#0/matroska @ 00000204e54d8ec0] video:1408KiB audio:0KiB subtitle:0KiB other streams:0KiB global headers:0KiB muxing overhead: 0.234631%\nframe=  600 fps=2.5 q=54.0 Lsize=    1411KiB time=00:00:09.98 bitrate=1158.1kbits/s speed=0.0411x elapsed=0:04:03.01    \n",
  "seconds": 244.8478808403015,
  "probe_out": {}
}